# xmcd
#
# Track frame offsets:
#	150
#	12898
#	35364
#	53216
#	69914
#	84476
#	92013
#	110039
#	130669
#	151162
#	172707
#	194103
#	212302
#	233132
#	256025
#	268834
#
# Disc length: 3897 seconds
#
# Revision: 0
# Processed by: cddbd v1.5.1PL0 Copyright (c) Steve Scherf et al.
# Submitted via: dBpowerAMP V4.0
#
DISCID=c80f3710
DTITLE=eminem - off the wall
DYEAR=1900
DGENRE=
TTITLE0=Fuck you
TTITLE1=Dead wrong
TTITLE2=Off the wall
TTITLE3=If I get locked up tonight
TTITLE4=stir crazy
TTITLE5=Tylenol island
TTITLE6=Hellbound
TTITLE7=Shit on you
TTITLE8=Rush ya clique
TTITLE9=It's murda
TTITLE10=Murder murder
TTITLE11=Thug love
TTITLE12=Our house
TTITLE13=The kids
TTITLE14=We shine
TTITLE15=Turn me loose
EXTD=
EXTT0=
EXTT1=
EXTT2=
EXTT3=
EXTT4=
EXTT5=
EXTT6=
EXTT7=
EXTT8=
EXTT9=
EXTT10=
EXTT11=
EXTT12=
EXTT13=
EXTT14=
EXTT15=
PLAYORDER=
